<svg xmlns="http://www.w3.org/2000/svg" viewBox="0 0 512 512" width="512" height="512">
  <!--
    Source sketch for the electric (Strat-style) app icon.
    The shipped PNGs are the curated raster versions in this folder.
  -->
  <rect width="512" height="512" fill="#0f0f12"/>
  <g transform="translate(256 256) rotate(-42) translate(-256 -256)" fill="#e8a838">
    <path d="M248 248
             C248 210 175 200 160 240
             C148 275 175 300 205 305
             C185 340 175 390 195 435
             C220 490 280 515 330 500
             C375 485 390 430 370 390
             C350 360 330 345 315 335
             C350 310 375 270 360 235
             C345 200 310 210 285 225
             C275 215 260 220 248 248 Z"/>
    <rect x="242" y="55" width="28" height="200" rx="2"/>
    <path d="M238 58 L218 5 C214 -5 224 -12 236 -6 L255 2 L285 -8 C298 -12 308 -2 304 12 L278 58 Z"/>
  </g>
  <g transform="translate(256 256) rotate(-42) translate(-256 -256)" fill="#0f0f12">
    <rect x="236" y="348" width="40" height="14" rx="3"/>
    <rect x="236" y="374" width="40" height="14" rx="3"/>
    <rect x="236" y="400" width="40" height="14" rx="3"/>
    <rect x="232" y="444" width="48" height="12" rx="2"/>
    <circle cx="300" cy="428" r="7"/>
    <circle cx="316" cy="450" r="7"/>
    <circle cx="288" cy="454" r="7"/>
    <circle cx="228" cy="12" r="5"/>
    <circle cx="232" cy="30" r="5"/>
    <circle cx="236" cy="46" r="5"/>
    <circle cx="272" cy="8" r="5"/>
    <circle cx="278" cy="24" r="5"/>
    <circle cx="282" cy="40" r="5"/>
  </g>
</svg>
